<mxfile host="65bd71144e">
    <diagram id="-hjerftAarIwnBodCDaE" name="Page-1">
        <mxGraphModel dx="2018" dy="-284" grid="1" gridSize="10" guides="1" tooltips="1" connect="1" arrows="1" fold="1" page="1" pageScale="1" pageWidth="1100" pageHeight="850" math="0" shadow="0">
            <root>
                <mxCell id="0"/>
                <mxCell id="1" parent="0"/>
                <mxCell id="106" value="" style="edgeStyle=none;html=1;" edge="1" parent="1" source="104" target="105">
                    <mxGeometry relative="1" as="geometry"/>
                </mxCell>
                <mxCell id="104" value="Main" style="ellipse;whiteSpace=wrap;html=1;" vertex="1" parent="1">
                    <mxGeometry x="490" y="880" width="120" height="60" as="geometry"/>
                </mxCell>
                <mxCell id="110" value="" style="edgeStyle=none;html=1;" edge="1" parent="1" source="105" target="109">
                    <mxGeometry relative="1" as="geometry"/>
                </mxCell>
                <mxCell id="105" value="way_first_file = r'way' way_second_file = r'way'" style="whiteSpace=wrap;html=1;" vertex="1" parent="1">
                    <mxGeometry x="465" y="1030" width="170" height="70" as="geometry"/>
                </mxCell>
                <mxCell id="112" value="" style="edgeStyle=none;html=1;" edge="1" parent="1" source="109" target="111">
                    <mxGeometry relative="1" as="geometry"/>
                </mxCell>
                <mxCell id="109" value="string_first_file = open_file(way_first_file)&lt;br&gt;string_second_file = open_file(way_first_file)" style="shape=process;whiteSpace=wrap;html=1;backgroundOutline=1;" vertex="1" parent="1">
                    <mxGeometry x="365" y="1190" width="370" height="75" as="geometry"/>
                </mxCell>
                <mxCell id="145" value="" style="edgeStyle=none;html=1;" edge="1" parent="1" source="111" target="144">
                    <mxGeometry relative="1" as="geometry"/>
                </mxCell>
                <mxCell id="111" value="equal_polynomial = string_first_file.(replace('= 0', string_second_file)&lt;br&gt;variable_polynomial = feel_list(equal_polynomial)" style="whiteSpace=wrap;html=1;" vertex="1" parent="1">
                    <mxGeometry x="335" y="1340" width="430" height="80" as="geometry"/>
                </mxCell>
                <mxCell id="115" value="" style="edgeStyle=none;html=1;" edge="1" parent="1" source="113" target="114">
                    <mxGeometry relative="1" as="geometry"/>
                </mxCell>
                <mxCell id="113" value="open_file(way_file)" style="ellipse;whiteSpace=wrap;html=1;" vertex="1" parent="1">
                    <mxGeometry x="1590" y="880" width="120" height="60" as="geometry"/>
                </mxCell>
                <mxCell id="117" value="" style="edgeStyle=none;html=1;" edge="1" parent="1" source="114" target="116">
                    <mxGeometry relative="1" as="geometry"/>
                </mxCell>
                <mxCell id="114" value="open('way_file', r) as file&lt;br&gt;file = file.readlines()[-1]" style="whiteSpace=wrap;html=1;" vertex="1" parent="1">
                    <mxGeometry x="1575" y="1020" width="150" height="60" as="geometry"/>
                </mxCell>
                <mxCell id="116" value="file" style="ellipse;whiteSpace=wrap;html=1;" vertex="1" parent="1">
                    <mxGeometry x="1590" y="1160" width="120" height="60" as="geometry"/>
                </mxCell>
                <mxCell id="120" value="" style="edgeStyle=none;html=1;" edge="1" parent="1" source="118" target="119">
                    <mxGeometry relative="1" as="geometry"/>
                </mxCell>
                <mxCell id="118" value="feel_list(polynomial)" style="ellipse;whiteSpace=wrap;html=1;" vertex="1" parent="1">
                    <mxGeometry x="2495" y="870" width="120" height="60" as="geometry"/>
                </mxCell>
                <mxCell id="122" value="" style="edgeStyle=none;html=1;" edge="1" parent="1" source="119" target="121">
                    <mxGeometry relative="1" as="geometry"/>
                </mxCell>
                <mxCell id="119" value="text = ''&lt;br&gt;variable_list = []&lt;br&gt;i = 0" style="whiteSpace=wrap;html=1;" vertex="1" parent="1">
                    <mxGeometry x="2495" y="1010" width="120" height="60" as="geometry"/>
                </mxCell>
                <mxCell id="124" value="True" style="edgeStyle=none;html=1;" edge="1" parent="1" source="121" target="123">
                    <mxGeometry relative="1" as="geometry"/>
                </mxCell>
                <mxCell id="143" value="False" style="edgeStyle=none;html=1;" edge="1" parent="1" source="121" target="142">
                    <mxGeometry relative="1" as="geometry"/>
                </mxCell>
                <mxCell id="121" value="polynomial != '='" style="shape=hexagon;perimeter=hexagonPerimeter2;whiteSpace=wrap;html=1;fixedSize=1;" vertex="1" parent="1">
                    <mxGeometry x="2495" y="1140" width="120" height="80" as="geometry"/>
                </mxCell>
                <mxCell id="126" value="True" style="edgeStyle=none;html=1;" edge="1" parent="1" source="123" target="125">
                    <mxGeometry relative="1" as="geometry"/>
                </mxCell>
                <mxCell id="131" value="False" style="edgeStyle=none;html=1;" edge="1" parent="1" source="123" target="127">
                    <mxGeometry relative="1" as="geometry"/>
                </mxCell>
                <mxCell id="123" value="polynomial[i] != '+' and polynomial[i] != ' '" style="rhombus;whiteSpace=wrap;html=1;" vertex="1" parent="1">
                    <mxGeometry x="2440" y="1300" width="230" height="110" as="geometry"/>
                </mxCell>
                <mxCell id="138" value="" style="edgeStyle=none;html=1;" edge="1" parent="1" source="125" target="137">
                    <mxGeometry relative="1" as="geometry">
                        <Array as="points">
                            <mxPoint x="2555" y="1670"/>
                            <mxPoint x="3145" y="1670"/>
                        </Array>
                    </mxGeometry>
                </mxCell>
                <mxCell id="125" value="text += polynomial[i]" style="whiteSpace=wrap;html=1;" vertex="1" parent="1">
                    <mxGeometry x="2495" y="1505" width="120" height="60" as="geometry"/>
                </mxCell>
                <mxCell id="133" value="True" style="edgeStyle=none;html=1;" edge="1" parent="1" source="127" target="132">
                    <mxGeometry relative="1" as="geometry"/>
                </mxCell>
                <mxCell id="134" value="False" style="edgeStyle=none;html=1;entryX=1;entryY=0.5;entryDx=0;entryDy=0;" edge="1" parent="1" source="127" target="121">
                    <mxGeometry relative="1" as="geometry">
                        <Array as="points">
                            <mxPoint x="2885" y="1180"/>
                        </Array>
                    </mxGeometry>
                </mxCell>
                <mxCell id="127" value="polynnomial[i] == ' ' and text != ''" style="rhombus;whiteSpace=wrap;html=1;" vertex="1" parent="1">
                    <mxGeometry x="2775" y="1310" width="220" height="85" as="geometry"/>
                </mxCell>
                <mxCell id="140" value="" style="edgeStyle=none;html=1;" edge="1" parent="1" source="132" target="137">
                    <mxGeometry relative="1" as="geometry"/>
                </mxCell>
                <mxCell id="132" value="variable_list.append(text)&lt;br&gt;text = ''" style="whiteSpace=wrap;html=1;" vertex="1" parent="1">
                    <mxGeometry x="2795" y="1492.5" width="180" height="72.5" as="geometry"/>
                </mxCell>
                <mxCell id="141" style="edgeStyle=none;html=1;" edge="1" parent="1" source="137">
                    <mxGeometry relative="1" as="geometry">
                        <mxPoint x="2885" y="1200" as="targetPoint"/>
                        <Array as="points">
                            <mxPoint x="3145" y="1200"/>
                        </Array>
                    </mxGeometry>
                </mxCell>
                <mxCell id="137" value="i+=1" style="whiteSpace=wrap;html=1;" vertex="1" parent="1">
                    <mxGeometry x="3085" y="1498.75" width="120" height="60" as="geometry"/>
                </mxCell>
                <mxCell id="142" value="variable_list" style="ellipse;whiteSpace=wrap;html=1;" vertex="1" parent="1">
                    <mxGeometry x="2295" y="1150" width="120" height="60" as="geometry"/>
                </mxCell>
                <mxCell id="215" value="" style="edgeStyle=none;html=1;" edge="1" parent="1" source="144" target="214">
                    <mxGeometry relative="1" as="geometry"/>
                </mxCell>
                <mxCell id="144" value="list_coef, list_pol = shares_pol_and_coef(variable_polynomial)&lt;br&gt;coef_sum = sum_polynomial(list_coef, list_pol)" style="whiteSpace=wrap;html=1;" vertex="1" parent="1">
                    <mxGeometry x="290" y="1520" width="520" height="130" as="geometry"/>
                </mxCell>
                <mxCell id="148" value="" style="edgeStyle=none;html=1;" edge="1" parent="1" source="146" target="147">
                    <mxGeometry relative="1" as="geometry"/>
                </mxCell>
                <mxCell id="146" value="&lt;span&gt;shares_pol_and_coef(variable)&lt;/span&gt;" style="ellipse;whiteSpace=wrap;html=1;" vertex="1" parent="1">
                    <mxGeometry x="3790" y="870" width="210" height="70" as="geometry"/>
                </mxCell>
                <mxCell id="150" value="" style="edgeStyle=none;html=1;" edge="1" parent="1" source="147" target="149">
                    <mxGeometry relative="1" as="geometry"/>
                </mxCell>
                <mxCell id="147" value="list_coef = []&lt;br&gt;list_pol = []&lt;br&gt;text_coef = ''&lt;br&gt;text_pol = ''&lt;br&gt;check = False" style="whiteSpace=wrap;html=1;" vertex="1" parent="1">
                    <mxGeometry x="3822.5" y="1022.5" width="145" height="85" as="geometry"/>
                </mxCell>
                <mxCell id="152" value="True" style="edgeStyle=none;html=1;" edge="1" parent="1" source="149" target="151">
                    <mxGeometry relative="1" as="geometry"/>
                </mxCell>
                <mxCell id="184" value="False" style="edgeStyle=none;html=1;" edge="1" parent="1" source="149" target="183">
                    <mxGeometry relative="1" as="geometry"/>
                </mxCell>
                <mxCell id="149" value="i in range(len(variable))" style="shape=hexagon;perimeter=hexagonPerimeter2;whiteSpace=wrap;html=1;fixedSize=1;" vertex="1" parent="1">
                    <mxGeometry x="3827.5" y="1190" width="135" height="80" as="geometry"/>
                </mxCell>
                <mxCell id="154" value="True" style="edgeStyle=none;html=1;" edge="1" parent="1" source="151" target="153">
                    <mxGeometry relative="1" as="geometry"/>
                </mxCell>
                <mxCell id="156" value="False" style="edgeStyle=none;html=1;" edge="1" parent="1" source="151" target="155">
                    <mxGeometry relative="1" as="geometry"/>
                </mxCell>
                <mxCell id="151" value="variable[i].isdigit()" style="rhombus;whiteSpace=wrap;html=1;" vertex="1" parent="1">
                    <mxGeometry x="3812.5" y="1350" width="165" height="80" as="geometry"/>
                </mxCell>
                <mxCell id="153" value="list_coef.append(variable[i])&lt;br&gt;list_pol.append('')&lt;br&gt;continue" style="whiteSpace=wrap;html=1;" vertex="1" parent="1">
                    <mxGeometry x="3747.5" y="1520" width="295" height="70" as="geometry"/>
                </mxCell>
                <mxCell id="158" value="True" style="edgeStyle=none;html=1;" edge="1" parent="1" source="155" target="157">
                    <mxGeometry relative="1" as="geometry"/>
                </mxCell>
                <mxCell id="173" value="False" style="edgeStyle=none;html=1;" edge="1" parent="1" source="155" target="172">
                    <mxGeometry relative="1" as="geometry"/>
                </mxCell>
                <mxCell id="155" value="k in variable[i]" style="shape=hexagon;perimeter=hexagonPerimeter2;whiteSpace=wrap;html=1;fixedSize=1;" vertex="1" parent="1">
                    <mxGeometry x="4390" y="1350" width="150" height="80" as="geometry"/>
                </mxCell>
                <mxCell id="160" value="True" style="edgeStyle=none;html=1;" edge="1" parent="1" source="157" target="159">
                    <mxGeometry relative="1" as="geometry"/>
                </mxCell>
                <mxCell id="162" value="False" style="edgeStyle=none;html=1;" edge="1" parent="1" source="157" target="161">
                    <mxGeometry relative="1" as="geometry"/>
                </mxCell>
                <mxCell id="157" value="k.isdigit() and not check" style="rhombus;whiteSpace=wrap;html=1;" vertex="1" parent="1">
                    <mxGeometry x="4387.5" y="1515" width="155" height="80" as="geometry"/>
                </mxCell>
                <mxCell id="169" style="edgeStyle=none;html=1;entryX=1;entryY=0.5;entryDx=0;entryDy=0;" edge="1" parent="1" source="159" target="155">
                    <mxGeometry relative="1" as="geometry">
                        <Array as="points">
                            <mxPoint x="4465" y="1880"/>
                            <mxPoint x="5240" y="1880"/>
                            <mxPoint x="5240" y="1390"/>
                        </Array>
                    </mxGeometry>
                </mxCell>
                <mxCell id="159" value="text_coef += k" style="whiteSpace=wrap;html=1;" vertex="1" parent="1">
                    <mxGeometry x="4405" y="1685" width="120" height="60" as="geometry"/>
                </mxCell>
                <mxCell id="164" value="True" style="edgeStyle=none;html=1;" edge="1" parent="1" source="161" target="163">
                    <mxGeometry relative="1" as="geometry"/>
                </mxCell>
                <mxCell id="166" value="False" style="edgeStyle=none;html=1;" edge="1" parent="1" source="161" target="165">
                    <mxGeometry relative="1" as="geometry"/>
                </mxCell>
                <mxCell id="161" value="not k.isdigit() and not check" style="rhombus;whiteSpace=wrap;html=1;" vertex="1" parent="1">
                    <mxGeometry x="4690" y="1515" width="190" height="75" as="geometry"/>
                </mxCell>
                <mxCell id="170" style="edgeStyle=none;html=1;" edge="1" parent="1" source="163">
                    <mxGeometry relative="1" as="geometry">
                        <mxPoint x="4785" y="1880" as="targetPoint"/>
                    </mxGeometry>
                </mxCell>
                <mxCell id="163" value="check =True&lt;br&gt;text_pol += k" style="whiteSpace=wrap;html=1;" vertex="1" parent="1">
                    <mxGeometry x="4725" y="1677.5" width="120" height="60" as="geometry"/>
                </mxCell>
                <mxCell id="168" value="True" style="edgeStyle=none;html=1;" edge="1" parent="1" source="165" target="167">
                    <mxGeometry relative="1" as="geometry"/>
                </mxCell>
                <mxCell id="165" value="k.isdigit() and not check" style="rhombus;whiteSpace=wrap;html=1;" vertex="1" parent="1">
                    <mxGeometry x="5015" y="1512.5" width="175" height="77.5" as="geometry"/>
                </mxCell>
                <mxCell id="171" style="edgeStyle=none;html=1;" edge="1" parent="1" source="167">
                    <mxGeometry relative="1" as="geometry">
                        <mxPoint x="5102.5" y="1880" as="targetPoint"/>
                    </mxGeometry>
                </mxCell>
                <mxCell id="167" value="text_pol += k" style="whiteSpace=wrap;html=1;" vertex="1" parent="1">
                    <mxGeometry x="5042.5" y="1678.75" width="120" height="60" as="geometry"/>
                </mxCell>
                <mxCell id="175" value="True" style="edgeStyle=none;html=1;" edge="1" parent="1" source="172" target="174">
                    <mxGeometry relative="1" as="geometry"/>
                </mxCell>
                <mxCell id="179" value="False" style="edgeStyle=none;html=1;" edge="1" parent="1" source="172" target="176">
                    <mxGeometry relative="1" as="geometry"/>
                </mxCell>
                <mxCell id="172" value="text_coef == &quot;" style="rhombus;whiteSpace=wrap;html=1;" vertex="1" parent="1">
                    <mxGeometry x="4400" y="1185" width="122.5" height="90" as="geometry"/>
                </mxCell>
                <mxCell id="182" style="edgeStyle=none;html=1;entryX=0.5;entryY=0;entryDx=0;entryDy=0;" edge="1" parent="1" source="174" target="176">
                    <mxGeometry relative="1" as="geometry">
                        <Array as="points">
                            <mxPoint x="4220" y="1090"/>
                        </Array>
                    </mxGeometry>
                </mxCell>
                <mxCell id="174" value="text_coef = 0" style="whiteSpace=wrap;html=1;" vertex="1" parent="1">
                    <mxGeometry x="4400" y="1060" width="120" height="60" as="geometry"/>
                </mxCell>
                <mxCell id="180" style="edgeStyle=none;html=1;" edge="1" parent="1" source="176" target="149">
                    <mxGeometry relative="1" as="geometry"/>
                </mxCell>
                <mxCell id="176" value="text_coef.append(list_coef)&lt;br&gt;text_pol.append(list_pol)&lt;br&gt;text_coef = '''&lt;br&gt;text_pol = ''&lt;br&gt;check = False" style="whiteSpace=wrap;html=1;" vertex="1" parent="1">
                    <mxGeometry x="4100" y="1185" width="240" height="90" as="geometry"/>
                </mxCell>
                <mxCell id="183" value="list_coef, list_pol" style="ellipse;whiteSpace=wrap;html=1;" vertex="1" parent="1">
                    <mxGeometry x="3620" y="1200" width="120" height="60" as="geometry"/>
                </mxCell>
                <mxCell id="187" value="" style="edgeStyle=none;html=1;" edge="1" parent="1" source="185" target="186">
                    <mxGeometry relative="1" as="geometry"/>
                </mxCell>
                <mxCell id="185" value="sum_polynomial(list_coef, list_pol)" style="ellipse;whiteSpace=wrap;html=1;" vertex="1" parent="1">
                    <mxGeometry x="5990" y="880" width="230" height="60" as="geometry"/>
                </mxCell>
                <mxCell id="189" value="" style="edgeStyle=none;html=1;" edge="1" parent="1" source="186" target="188">
                    <mxGeometry relative="1" as="geometry"/>
                </mxCell>
                <mxCell id="186" value="coef_sum = []&lt;br&gt;number = 0" style="whiteSpace=wrap;html=1;" vertex="1" parent="1">
                    <mxGeometry x="6045" y="1020" width="120" height="60" as="geometry"/>
                </mxCell>
                <mxCell id="191" value="True" style="edgeStyle=none;html=1;" edge="1" parent="1" source="188" target="190">
                    <mxGeometry relative="1" as="geometry"/>
                </mxCell>
                <mxCell id="213" value="False" style="edgeStyle=none;html=1;" edge="1" parent="1" source="188" target="212">
                    <mxGeometry relative="1" as="geometry"/>
                </mxCell>
                <mxCell id="188" value="i in range(len(list_pol) // 2)" style="shape=hexagon;perimeter=hexagonPerimeter2;whiteSpace=wrap;html=1;fixedSize=1;" vertex="1" parent="1">
                    <mxGeometry x="6007.5" y="1150" width="195" height="80" as="geometry"/>
                </mxCell>
                <mxCell id="193" value="True" style="edgeStyle=none;html=1;" edge="1" parent="1" source="190" target="192">
                    <mxGeometry relative="1" as="geometry"/>
                </mxCell>
                <mxCell id="197" value="False" style="edgeStyle=none;html=1;" edge="1" parent="1" source="190" target="196">
                    <mxGeometry relative="1" as="geometry"/>
                </mxCell>
                <mxCell id="190" value="k in range(len(list_coef))" style="shape=hexagon;perimeter=hexagonPerimeter2;whiteSpace=wrap;html=1;fixedSize=1;" vertex="1" parent="1">
                    <mxGeometry x="6022.5" y="1310" width="165" height="80" as="geometry"/>
                </mxCell>
                <mxCell id="195" value="True" style="edgeStyle=none;html=1;" edge="1" parent="1" source="192" target="194">
                    <mxGeometry relative="1" as="geometry"/>
                </mxCell>
                <mxCell id="192" value="list_pol[i] == list_pol [k]" style="rhombus;whiteSpace=wrap;html=1;" vertex="1" parent="1">
                    <mxGeometry x="6027.5" y="1470" width="155" height="70" as="geometry"/>
                </mxCell>
                <mxCell id="194" value="number += int(list_coef[k])" style="whiteSpace=wrap;html=1;" vertex="1" parent="1">
                    <mxGeometry x="6022.5" y="1623.75" width="165" height="55" as="geometry"/>
                </mxCell>
                <mxCell id="199" value="True" style="edgeStyle=none;html=1;" edge="1" parent="1" source="196" target="198">
                    <mxGeometry relative="1" as="geometry"/>
                </mxCell>
                <mxCell id="203" value="False" style="edgeStyle=none;html=1;" edge="1" parent="1" source="196" target="202">
                    <mxGeometry relative="1" as="geometry"/>
                </mxCell>
                <mxCell id="196" value="number == 0" style="rhombus;whiteSpace=wrap;html=1;" vertex="1" parent="1">
                    <mxGeometry x="6310" y="1310" width="80" height="80" as="geometry"/>
                </mxCell>
                <mxCell id="210" style="edgeStyle=none;html=1;entryX=0.5;entryY=1;entryDx=0;entryDy=0;" edge="1" parent="1" source="198" target="206">
                    <mxGeometry relative="1" as="geometry">
                        <Array as="points">
                            <mxPoint x="6350" y="1590"/>
                            <mxPoint x="7020" y="1590"/>
                        </Array>
                    </mxGeometry>
                </mxCell>
                <mxCell id="198" value="coef_sum.append(list_pol[i])" style="whiteSpace=wrap;html=1;" vertex="1" parent="1">
                    <mxGeometry x="6270" y="1480" width="160" height="60" as="geometry"/>
                </mxCell>
                <mxCell id="205" value="True" style="edgeStyle=none;html=1;" edge="1" parent="1" source="202" target="204">
                    <mxGeometry relative="1" as="geometry"/>
                </mxCell>
                <mxCell id="207" value="False" style="edgeStyle=none;html=1;" edge="1" parent="1" source="202" target="206">
                    <mxGeometry relative="1" as="geometry"/>
                </mxCell>
                <mxCell id="202" value="number != 0" style="rhombus;whiteSpace=wrap;html=1;" vertex="1" parent="1">
                    <mxGeometry x="6670" y="1310" width="80" height="80" as="geometry"/>
                </mxCell>
                <mxCell id="211" style="edgeStyle=none;html=1;" edge="1" parent="1" source="204">
                    <mxGeometry relative="1" as="geometry">
                        <mxPoint x="7020" y="1510" as="targetPoint"/>
                    </mxGeometry>
                </mxCell>
                <mxCell id="204" value="coef_sum.append(str(number + list_pol[i])&lt;br&gt;number = int(number)" style="whiteSpace=wrap;html=1;" vertex="1" parent="1">
                    <mxGeometry x="6565" y="1480" width="290" height="60" as="geometry"/>
                </mxCell>
                <mxCell id="206" value="nnumber = 0" style="whiteSpace=wrap;html=1;" vertex="1" parent="1">
                    <mxGeometry x="6960" y="1320" width="120" height="60" as="geometry"/>
                </mxCell>
                <mxCell id="212" value="coef_sum" style="ellipse;whiteSpace=wrap;html=1;" vertex="1" parent="1">
                    <mxGeometry x="6320" y="1160" width="120" height="60" as="geometry"/>
                </mxCell>
                <mxCell id="214" value="End" style="ellipse;whiteSpace=wrap;html=1;" vertex="1" parent="1">
                    <mxGeometry x="490" y="1765" width="120" height="60" as="geometry"/>
                </mxCell>
            </root>
        </mxGraphModel>
    </diagram>
</mxfile>